<?xml version="1.0" standalone="no"?>
<!DOCTYPE svg PUBLIC "-//W3C//DTD SVG 20010904//EN"
 "http://www.w3.org/TR/2001/REC-SVG-20010904/DTD/svg10.dtd">
<svg version="1.0" xmlns="http://www.w3.org/2000/svg"
 width="480.000000pt" height="480.000000pt" viewBox="0 0 480.000000 480.000000"
 preserveAspectRatio="xMidYMid meet">
<metadata>
Created by potrace 1.11, written by Peter Selinger 2001-2013
</metadata>
<g transform="translate(0.000000,480.000000) scale(0.100000,-0.100000)"
fill="#000000" stroke="none">
<path d="M0 2400 l0 -2400 2400 0 2400 0 0 2400 0 2400 -2400 0 -2400 0 0
-2400z m1885 781 c252 -52 430 -167 784 -502 274 -260 339 -309 419 -309 75 0
173 84 394 340 182 210 222 235 373 235 88 0 107 -3 157 -27 80 -37 152 -107
191 -187 29 -59 32 -74 32 -156 0 -102 -21 -166 -89 -267 -90 -136 -346 -404
-486 -508 -96 -72 -254 -150 -350 -174 -36 -10 -114 -19 -175 -23 -311 -15
-575 118 -975 493 -238 223 -360 317 -425 330 -61 11 -117 -26 -260 -175 -378
-393 -382 -396 -530 -396 -82 0 -97 3 -156 32 -125 62 -216 190 -226 317 -13
158 86 328 336 576 346 343 657 469 986 401z"/>
</g>
</svg>
